<?xml version="1.0" standalone="no"?>
<!DOCTYPE svg PUBLIC "-//W3C//DTD SVG 20010904//EN"
 "http://www.w3.org/TR/2001/REC-SVG-20010904/DTD/svg10.dtd">
<svg version="1.0" xmlns="http://www.w3.org/2000/svg"
 width="600.000000pt" height="600.000000pt" viewBox="0 0 600.000000 600.000000"
 preserveAspectRatio="xMidYMid meet">
<metadata>
Created by potrace 1.14, written by Peter Selinger 2001-2017
</metadata>
<g transform="translate(0.000000,600.000000) scale(0.100000,-0.100000)"
fill="#000000" stroke="none">
<path d="M2990 5758 l0 -141 -138 6 -139 6 -6 -346 c-4 -190 -7 -571 -7 -845
l0 -498 -145 0 -145 0 0 -140 0 -140 -145 0 -144 0 -3 -142 -3 -143 -142 -3
-143 -3 -2 -112 c-1 -61 -2 -123 -3 -137 l-1 -25 -147 -3 -147 -3 0 -144 0
-145 -272 2 -273 3 -6 110 c-3 61 -12 125 -19 143 l-14 32 -123 0 -123 0 0 96
c0 75 -5 106 -21 145 l-21 49 -120 0 -120 0 3 228 c4 222 3 228 -20 285 l-25
57 -137 0 -137 0 -6 -132 c-3 -73 -10 -395 -16 -715 l-11 -582 26 -41 25 -40
120 0 120 0 0 -106 c0 -91 3 -112 22 -145 l22 -39 124 0 125 0 -7 -101 c-6
-92 -4 -104 16 -140 l21 -38 125 -3 125 -3 -2 -106 c-2 -93 1 -111 19 -143
l22 -36 274 0 274 0 -5 -332 c-15 -1006 -15 -1057 -3 -1083 l11 -25 289 0 288
0 0 149 c0 82 -3 156 -6 165 -5 14 -27 16 -140 16 l-134 0 -1 45 c0 25 0 68 0
95 0 28 0 64 0 80 l1 30 146 0 145 0 -2 28 c-1 15 -1 80 -1 145 l2 117 145 0
145 0 0 140 0 140 145 0 144 0 3 -143 3 -142 143 -3 142 -3 0 -429 0 -430 290
0 290 0 0 165 0 165 -145 0 -145 0 0 555 0 555 145 0 145 0 0 140 0 140 140 0
140 0 6 25 c3 14 7 78 8 143 l1 117 106 -4 c58 -2 120 0 137 3 51 12 54 48 46
473 l-7 373 137 0 136 0 0 -140 0 -140 143 0 143 0 18 54 c16 46 18 73 13 173
-4 65 -7 189 -7 276 l0 157 -290 0 -290 0 0 230 0 230 558 0 558 0 22 63 c19
56 21 75 15 195 l-6 132 -429 0 -428 0 0 84 0 83 693 -5 693 -5 26 69 25 69
-7 455 c-5 250 -9 499 -9 553 l-1 97 -145 0 -145 0 0 140 0 140 -1285 0 -1285
0 0 -142z m565 -620 c0 -38 -3 -68 -7 -68 -5 0 -69 0 -143 0 l-135 0 0 70 0
71 143 -3 142 -3 0 -67z"/>
</g>
</svg>
